<svg width="84" height="70" viewBox="0 0 84 70" fill="none" xmlns="http://www.w3.org/2000/svg">
<g filter="url(#filter0_d_241_225)">
<path fill-rule="evenodd" clip-rule="evenodd" d="M18.5 0C10.4919 0 4 6.49187 4 14.5V47.5C4 55.5081 10.4919 62 18.5 62H65.5C73.5081 62 80 55.5081 80 47.5V14.5C80 6.49187 73.5081 0 65.5 0H18.5ZM13 14.5C13 11.4624 15.4624 9 18.5 9H65.5C68.5376 9 71 11.4624 71 14.5V47.5C71 50.5376 68.5376 53 65.5 53H18.5C15.4624 53 13 50.5376 13 47.5V14.5ZM52.1984 24.6422C53.37 23.4706 53.37 21.5711 52.1984 20.3995C51.0268 19.228 49.1274 19.228 47.9558 20.3995L42.2989 26.0564L36.6421 20.3995C35.4705 19.228 33.571 19.228 32.3994 20.3995C31.2279 21.5711 31.2279 23.4706 32.3994 24.6422L38.0563 30.299L32.3994 35.9559C31.2279 37.1274 31.2279 39.0269 32.3994 40.1985C33.571 41.3701 35.4705 41.3701 36.6421 40.1985L42.2989 34.5417L47.9558 40.1985C49.1273 41.3701 51.0268 41.3701 52.1984 40.1985C53.37 39.0269 53.37 37.1274 52.1984 35.9559L46.5416 30.299L52.1984 24.6422Z" fill="#808080"/>
</g>
<defs>
<filter id="filter0_d_241_225" x="0" y="0" width="84" height="70" filterUnits="userSpaceOnUse" color-interpolation-filters="sRGB">
<feFlood flood-opacity="0" result="BackgroundImageFix"/>
<feColorMatrix in="SourceAlpha" type="matrix" values="0 0 0 0 0 0 0 0 0 0 0 0 0 0 0 0 0 0 127 0" result="hardAlpha"/>
<feOffset dy="4"/>
<feGaussianBlur stdDeviation="2"/>
<feComposite in2="hardAlpha" operator="out"/>
<feColorMatrix type="matrix" values="0 0 0 0 0 0 0 0 0 0 0 0 0 0 0 0 0 0 0.25 0"/>
<feBlend mode="normal" in2="BackgroundImageFix" result="effect1_dropShadow_241_225"/>
<feBlend mode="normal" in="SourceGraphic" in2="effect1_dropShadow_241_225" result="shape"/>
</filter>
</defs>
</svg>
